<svg width="175" height="75" viewBox="0 0 175 75" fill="none" xmlns="http://www.w3.org/2000/svg">
<path d="M95.78 39.4952H100.575V42.5878C99.2513 43.2232 97.6378 43.5408 95.7348 43.5408C93.7077 43.5408 92.1545 43.0241 91.0713 41.9946C89.9882 40.965 89.4466 39.4723 89.4466 37.5203C89.4466 35.5683 89.9468 34.1483 90.9435 33.069C91.9401 31.9897 93.3843 31.45 95.2685 31.45C96.5171 31.45 97.525 31.672 98.296 32.116C99.067 32.56 99.6236 33.2489 99.9696 34.1866L103.43 33.735C102.959 32.1657 102.057 30.9103 100.718 29.9764C99.3791 29.0387 97.5927 28.5718 95.3625 28.5718C93.4933 28.5718 91.8423 28.9277 90.4169 29.6435C88.9916 30.3554 87.8783 31.3849 87.0848 32.7245C86.2912 34.0641 85.8926 35.6793 85.8926 37.5662C85.8926 39.4531 86.2875 41.0071 87.0735 42.3275C87.8595 43.6442 88.9916 44.6546 90.4621 45.3627C91.9363 46.0669 93.6927 46.4229 95.7348 46.4229C97.2617 46.4229 98.7285 46.22 100.131 45.8143C101.534 45.4086 102.749 44.8345 103.779 44.0882V36.8046H95.7837V39.4952H95.78Z" fill="#006B64"/>
<path d="M130.76 29.0005H114.088V31.9514H120.707V45.9943H124.167V31.9514H130.76V29.0005Z" fill="#006B64"/>
<path d="M167.85 29.0005L161.724 42.2549L155.574 29.0005H150.275V29.7775C151.02 30.0071 151.528 30.7075 151.528 31.4998V45.9943H154.732V33.9532L160.298 45.9943H162.987L168.553 33.8345V45.9943H171.803V29.0005H167.85Z" fill="#006B64"/>
<path d="M107.752 29.0004H106.139V29.7774L106.342 29.8386C107.18 30.0989 107.756 30.8873 107.756 31.7791V45.9903H111.216V28.9966H107.756L107.752 29.0004Z" fill="#006B64"/>
<path d="M140.889 29.0005H137.026L129.312 45.9943H132.885L134.119 43.1045C137.286 41.1832 141.253 40.7851 142.679 40.7009L144.931 45.9943H148.621L140.885 29.0005H140.889ZM135.789 39.1776L136.014 38.6609H136.018L138.922 32.0012L141.487 37.9299C140.076 38.0677 137.966 38.4006 135.789 39.1776Z" fill="#006B64"/>
<path d="M71.5304 33.999C70.4435 35.308 68.7511 37.1298 66.0808 39.5488C66.0658 39.5641 66.0507 39.5794 66.0357 39.5947C65.9981 39.6291 65.9567 39.6636 65.9154 39.7057C64.0951 41.3553 62.2522 42.7829 60.541 43.9886C60.5373 43.9886 60.5298 43.9924 60.5298 43.9924C60.2439 44.1761 59.9619 44.3522 59.6685 44.5282C59.6647 44.5282 59.6647 44.5321 59.6572 44.5321C59.3225 44.6469 58.7772 44.6699 58.6305 43.7245C58.6192 43.6785 58.6155 43.6288 58.6117 43.5752C58.5102 42.538 58.9088 41.8299 59.2097 41.4587C59.2097 41.4548 59.2134 41.4548 59.2134 41.4472C59.3075 41.3515 59.3977 41.252 59.4917 41.1601L59.503 41.1486C63.8281 36.6399 67.7243 31.936 69.4957 28.0474C69.4995 28.0435 69.4995 28.0321 69.507 28.0282C69.507 28.0244 69.5108 28.0244 69.5108 28.0167C70.6165 25.927 70.8835 24.3539 70.7819 23.1942C70.7819 23.1942 70.7819 23.1904 70.7819 23.1827C70.8008 22.9684 71.0001 22.9148 71.1167 23.198C71.1167 23.2018 71.1204 23.2095 71.1204 23.2133C71.4138 23.9826 71.677 24.7443 71.9027 25.4792C72.26 26.5929 72.5458 27.6455 72.7639 28.5373C73.2453 30.4548 72.779 32.4833 71.5266 33.999M73.8508 37.857C73.4747 39.8703 68.1493 46.4802 59.5143 50.5679C58.9502 50.8358 58.559 51.3602 58.4537 51.9841C58.4049 52.2749 58.3522 52.5697 58.292 52.8567C58.1905 53.339 58.6531 53.76 59.1081 53.5954C63.3504 52.118 67.4272 49.6493 70.7255 47.1347C70.9249 46.9854 71.1768 46.7826 71.4514 46.5606C72.9708 45.3205 73.9411 43.4987 74.0652 41.5199C74.0953 41.1448 74.1103 40.7621 74.1254 40.3831C74.1291 40.0463 74.2044 38.546 74.2044 37.991C74.2044 37.5432 73.911 37.5164 73.8508 37.857ZM70.6954 51.4903C68.6909 54.5178 62.4516 58.0697 56.5206 59.4093C56.1709 59.482 55.8775 59.7155 55.7083 60.0331C55.7045 60.0446 55.7045 60.0523 55.697 60.0637C55.2231 60.9594 55.964 62.0196 56.9531 61.8665C59.8979 61.4072 62.523 60.3814 64.8999 59.2255C66.9458 58.2381 68.6646 56.6344 69.7364 54.602C70.0975 53.9437 70.7819 52.4778 71.0753 51.7774C71.2558 51.3296 70.9136 51.1535 70.6954 51.4903ZM65.2798 13.1204C64.1289 11.754 62.8841 10.468 61.5527 9.28533C61.9664 14.2265 60.3304 24.0247 55.3736 31.76C55.1141 32.1657 54.5161 32.1312 54.2867 31.7064C54.1062 31.3696 53.9219 31.0366 53.7263 30.7112C53.6172 30.5314 53.6097 30.3132 53.6925 30.1256C56.9531 22.6277 57.412 14.0045 56.4078 7.9687C56.0957 6.09709 54.8922 4.50871 53.2073 3.68581C51.7669 2.98156 50.2776 2.36918 48.7356 1.8563C50.9846 6.65972 53.0305 16.5383 51.0674 25.5787C50.9583 26.0686 50.3528 26.2408 49.9993 25.8849C49.7623 25.6476 49.5179 25.4141 49.2734 25.1844C49.1305 25.0505 49.059 24.8668 49.0703 24.6792C49.5028 16.523 46.8401 8.30168 43.6922 2.87439C42.7182 1.19415 40.9882 0.141613 39.0739 0.0459272C38.4796 0.0153078 37.8854 0 37.2837 0C36.3472 0 35.4183 0.0497556 34.4931 0.118649C38.3894 4.00731 43.5832 12.0755 45.0311 20.8174C45.1176 21.3532 44.5798 21.7589 44.1059 21.5063C43.8088 21.3532 43.5117 21.2039 43.2108 21.0547C43.0567 20.9858 42.9401 20.8518 42.8836 20.6872C40.3789 13.2965 35.1964 6.95443 30.3937 3.06576C28.8593 1.82185 26.7983 1.47356 24.9517 2.13953C23.5677 2.63709 22.2213 3.21121 20.9163 3.85422C25.8844 6.10474 32.9436 11.1531 37.3514 18.0386C37.6598 18.5132 37.2686 19.1256 36.7195 19.0338C36.3247 18.9725 35.9298 18.919 35.5311 18.8769C35.3844 18.8615 35.249 18.7926 35.1475 18.6778C30.3636 13.4381 23.9175 9.89772 18.3927 8.11414C16.4935 7.49792 14.4175 7.90746 12.9056 9.22409C11.8112 10.1809 10.7694 11.2029 9.7878 12.2784C14.8575 12.5616 22.1047 14.261 28.1974 18.0616C28.6976 18.3716 28.5471 19.1409 27.9755 19.2596C27.4414 19.3744 26.9074 19.5084 26.3846 19.6576C26.2567 19.6959 26.1214 19.6883 26.001 19.6385C20.3221 17.3918 14.1241 16.7526 8.99049 17.1048C7.00474 17.2425 5.21832 18.3831 4.28186 20.1667C3.60114 21.4604 2.99563 22.8 2.46911 24.1702C6.65498 22.7579 12.5333 21.7321 18.4642 22.2067C19.1599 22.2641 19.19 23.0028 18.4679 23.5272C17.8361 23.9865 17.7045 24.1281 17.0915 24.6945C16.9222 24.8515 16.8019 25.0084 16.5988 25.0313C11.8036 25.571 7.21159 27.0637 3.45446 28.897C1.66803 29.7659 0.434463 31.4997 0.220092 33.4976C0.0583738 34.9329 -0.0130838 36.3911 0.00195972 37.8724H0.00572142C2.67972 35.5836 6.34658 33.1417 10.5061 31.3351C11.0552 31.094 11.4426 31.2739 11.2282 31.9513C11.0439 32.5369 11.0026 32.6594 10.8258 33.2909C10.792 33.4211 10.6979 33.5244 10.5926 33.6048C7.75316 35.5759 4.42853 39.0971 2.54808 41.6194C1.38973 43.1772 0.765421 45.4583 1.26562 47.3414C1.64923 48.7882 2.11934 50.1967 2.65715 51.5592C3.87944 49.2015 5.56808 46.5644 7.65914 44.0268C8.0277 43.579 8.93408 43.8317 8.7874 44.4019C8.01266 47.4141 6.54591 51.7008 6.3353 53.9514C6.1435 55.888 6.10965 58.3031 7.26048 59.8647C8.15181 61.0742 9.1146 62.2224 10.1413 63.3132C10.3294 61.2426 10.7167 58.9155 11.3373 56.5042C11.4877 55.9033 12.3452 55.9493 12.4279 56.5655C12.9093 59.9949 13.5073 63.3515 17.791 68.1128C18.562 68.9587 24.113 73.3679 31.9169 74.6462H31.9206C31.9507 74.6577 31.9733 74.6577 32.0034 74.6615C33.4626 74.8988 35.0046 75.029 36.603 74.9945C36.4074 74.9907 36.2118 74.9792 36.0125 74.9754C36.3397 74.9869 36.6594 74.9907 36.9753 74.9907H37.0279C37.4905 74.9945 37.9494 74.9869 38.4007 74.9716C38.6038 74.9601 38.8106 74.9524 39.0137 74.9409C39.119 74.9371 39.213 74.9295 39.292 74.9256C47.4005 74.3592 54.2528 70.6504 58.6004 67.5923H58.6042C58.638 67.5693 58.6719 67.5425 58.7057 67.5234C58.7095 67.5196 58.717 67.5119 58.717 67.5119C61.7257 65.3877 63.5084 63.5965 63.64 63.4395C61.4888 64.9054 55.1592 67.554 50.759 68.3539C49.1531 68.6525 47.6374 68.863 46.212 68.997H46.2083C28.4193 70.6619 24.2409 60.1862 23.2894 54.2882C23.2856 54.2652 23.2856 54.2384 23.2781 54.2193C23.0637 52.3324 22.9772 50.2694 23.0487 48.0303C23.0637 47.4868 23.0863 46.9204 23.1089 46.3539C23.1427 45.466 23.1728 44.5703 23.1916 43.6671C23.1954 43.3264 23.2029 42.9896 23.2029 42.6528C23.2029 42.5342 23.2029 42.4117 23.1991 42.293C23.1691 40.919 23.0938 39.6904 22.9735 38.5919C22.9735 38.5804 22.9735 38.5728 22.9697 38.5728C22.5259 34.3703 21.4992 32.0355 20.5026 30.738C20.4462 30.6653 20.4763 30.5543 20.559 30.5199C21.1194 30.2711 21.6534 30.0874 22.1687 29.9572C22.1687 29.9534 22.1724 29.9534 22.1724 29.9534C22.3755 29.9037 22.5824 29.8577 22.7779 29.8233C22.7892 29.8233 22.793 29.8233 22.8005 29.8195C22.9961 29.7888 23.1841 29.7659 23.3759 29.7506H23.3985C25.3917 29.6013 27.039 30.4204 28.7803 32.0087C31.789 34.7645 32.5111 39.8741 34.8805 43.5025C35.4296 44.3407 36.0539 45.0717 36.7346 45.7033C38.4458 46.9625 40.4353 47.3146 42.2706 47.2189C47.4268 46.9548 52.3987 42.3734 56.4567 36.992C56.4868 36.9078 56.5357 36.8275 56.5996 36.7586C56.6636 36.6935 56.72 36.6246 56.7839 36.5595C61.9702 29.5439 65.5994 21.3455 66.0884 19.6002H66.0921C66.235 19.0721 66.3591 18.5439 66.4682 18.0386C66.833 16.3048 66.408 14.4753 65.276 13.1319L65.2798 13.1204Z" fill="#006B64"/>
<path d="M174.004 60.8138H172.033L172.052 59.0914C172.052 59.057 172.025 59.0302 171.991 59.0302H171.096C171.062 59.0302 171.036 59.057 171.036 59.0914L171.07 61.3419L171.036 63.5925C171.036 63.6269 171.062 63.6537 171.096 63.6537H171.991C172.025 63.6537 172.052 63.6269 172.052 63.5925L172.025 61.5601H174.011L173.985 63.5925C173.985 63.6269 174.011 63.6537 174.045 63.6537H174.94C174.974 63.6537 175 63.6269 175 63.5925L174.966 61.3419L175 59.0914C175 59.057 174.974 59.0302 174.94 59.0302H174.045C174.011 59.0302 173.985 59.057 173.985 59.0914L174.004 60.8138ZM168.103 63.7494C169.167 63.7494 169.9 63.2671 170.16 62.0194C170.167 61.9658 170.149 61.939 170.107 61.939H169.238C169.205 61.939 169.186 61.9581 169.178 61.9926C169.054 62.6279 168.712 62.9762 168.076 62.9762C167.305 62.9762 166.865 62.383 166.865 61.3534C166.865 60.3238 167.294 59.7038 168.084 59.7038C168.674 59.7038 169.039 60.0215 169.159 60.5803C169.171 60.6147 169.193 60.6339 169.223 60.6339H170.073C170.111 60.6339 170.134 60.6071 170.126 60.5688C169.867 59.3402 169.069 58.9307 168.095 58.9307C166.726 58.9307 165.846 59.8875 165.846 61.3611C165.846 62.8346 166.707 63.7494 168.103 63.7494ZM163.326 59.765C163.834 59.765 164.124 60.0023 164.124 60.5037C164.124 61.0051 163.766 61.2041 163.353 61.2041H162.364L162.382 59.765H163.326ZM164.067 61.828C164.71 61.629 165.079 61.162 165.079 60.4808C165.079 59.5162 164.425 59.0302 163.289 59.0302H161.45C161.416 59.0302 161.389 59.057 161.389 59.0914L161.416 61.3419L161.389 63.5925C161.389 63.6269 161.416 63.6537 161.45 63.6537H162.337C162.371 63.6537 162.397 63.6269 162.397 63.5925L162.379 61.9352H163.025L163.473 62.6203L164.056 63.6116C164.067 63.6384 164.094 63.6499 164.127 63.6499H165.147C165.192 63.6499 165.211 63.6154 165.184 63.5772L164.067 61.828ZM159.016 61.6787H157.805L158.396 59.7038L159.02 61.6787H159.016ZM159.054 59.0302H157.828C157.794 59.0302 157.768 59.0417 157.756 59.0761L156.226 63.5848C156.214 63.6307 156.233 63.6499 156.271 63.6499H157.155C157.189 63.6499 157.215 63.6307 157.219 63.5963L157.557 62.4749H159.265L159.622 63.6039C159.629 63.6384 159.656 63.6499 159.686 63.6499H160.581C160.618 63.6499 160.645 63.6307 160.634 63.5848L159.122 59.0761C159.11 59.0417 159.088 59.0302 159.058 59.0302H159.054ZM155.417 62.9035H153.251L153.225 61.5831H155.176C155.21 61.5831 155.237 61.5563 155.237 61.5218V60.8941C155.237 60.8597 155.21 60.8329 155.176 60.8329H153.225L153.251 59.7689H155.365C155.398 59.7689 155.425 59.7421 155.425 59.7076V59.0799C155.425 59.0455 155.398 59.0187 155.365 59.0187H152.303C152.269 59.0187 152.243 59.0455 152.243 59.0799L152.277 61.3304L152.243 63.581C152.243 63.6154 152.269 63.6422 152.303 63.6422H155.417C155.451 63.6422 155.477 63.6154 155.477 63.581V62.9533C155.477 62.9188 155.451 62.892 155.417 62.892V62.9035ZM149.456 63.757C150.645 63.757 151.382 63.2289 151.382 62.2529C151.382 60.4272 148.471 61.2271 148.471 60.2396C148.471 59.8569 148.809 59.6923 149.276 59.6923C149.828 59.6923 150.163 59.922 150.208 60.343C150.216 60.3813 150.242 60.4042 150.272 60.4042H151.186C151.224 60.4042 151.25 60.3774 151.246 60.3391C151.103 59.3517 150.378 58.9383 149.313 58.9383C148.151 58.9383 147.489 59.478 147.489 60.3468C147.489 62.1801 150.389 61.3572 150.389 62.3983C150.389 62.8346 150.065 63.0107 149.475 63.0107C148.73 63.0107 148.497 62.6739 148.437 62.161C148.429 62.1227 148.403 62.0998 148.373 62.0998H147.459C147.422 62.0998 147.399 62.1189 147.399 62.161C147.444 63.2556 148.26 63.7647 149.456 63.7647V63.757ZM146.575 62.9035H144.409L144.383 61.5831H146.335C146.368 61.5831 146.395 61.5563 146.395 61.5218V60.8941C146.395 60.8597 146.368 60.8329 146.335 60.8329H144.383L144.409 59.7689H146.523C146.557 59.7689 146.583 59.7421 146.583 59.7076V59.0799C146.583 59.0455 146.557 59.0187 146.523 59.0187H143.461C143.427 59.0187 143.401 59.0455 143.401 59.0799L143.435 61.3304L143.401 63.581C143.401 63.6154 143.427 63.6422 143.461 63.6422H146.575C146.609 63.6422 146.635 63.6154 146.635 63.581V62.9533C146.635 62.9188 146.609 62.892 146.575 62.892V62.9035ZM132.942 59.7765H133.638C134.401 59.7765 134.988 60.2703 134.988 61.3687C134.988 62.4672 134.398 62.9074 133.664 62.9074H132.946L132.92 61.3228L132.946 59.7765H132.942ZM133.612 63.6499C134.89 63.6499 136.003 63.0107 136.003 61.3726C136.003 59.7344 134.902 59.0302 133.596 59.0302H131.994C131.96 59.0302 131.934 59.057 131.934 59.0914L131.968 61.3419L131.934 63.5925C131.934 63.6269 131.96 63.6537 131.994 63.6537H133.608L133.612 63.6499ZM127.936 61.6099L127.899 60.3545L129.681 63.6078C129.693 63.6346 129.719 63.646 129.753 63.646H130.889C130.922 63.646 130.949 63.6193 130.949 63.5848L130.922 61.3343L130.949 59.0838C130.949 59.0493 130.922 59.0225 130.889 59.0225H130.076C130.042 59.0225 130.016 59.0493 130.016 59.0838V61.2884L130.054 62.3371L128.23 59.0646C128.218 59.0378 128.192 59.0263 128.158 59.0263H127.064C127.03 59.0263 127.004 59.0531 127.004 59.0876L127.03 61.3381L127.004 63.5886C127.004 63.6231 127.03 63.6499 127.064 63.6499H127.876C127.91 63.6499 127.936 63.6231 127.936 63.5886V61.6099ZM124.634 61.6787H123.423L124.014 59.7038L124.638 61.6787H124.634ZM124.672 59.0302H123.446C123.412 59.0302 123.386 59.0417 123.374 59.0761L121.844 63.5848C121.832 63.6307 121.851 63.6499 121.889 63.6499H122.773C122.806 63.6499 122.833 63.6307 122.837 63.5963L123.175 62.4749H124.882L125.24 63.6039C125.247 63.6384 125.274 63.6499 125.304 63.6499H126.199C126.236 63.6499 126.263 63.6307 126.251 63.5848L124.74 59.0761C124.728 59.0417 124.706 59.0302 124.676 59.0302H124.672ZM117.402 63.757C118.591 63.757 119.328 63.2289 119.328 62.2529C119.328 60.4272 116.417 61.2271 116.417 60.2396C116.417 59.8569 116.755 59.6923 117.222 59.6923C117.774 59.6923 118.109 59.922 118.154 60.343C118.162 60.3813 118.188 60.4042 118.218 60.4042H119.132C119.17 60.4042 119.196 60.3774 119.192 60.3391C119.049 59.3517 118.323 58.9383 117.259 58.9383C116.097 58.9383 115.435 59.478 115.435 60.3468C115.435 62.1801 118.335 61.3572 118.335 62.3983C118.335 62.8346 118.011 63.0107 117.421 63.0107C116.676 63.0107 116.443 62.6739 116.383 62.161C116.375 62.1227 116.349 62.0998 116.319 62.0998H115.405C115.367 62.0998 115.345 62.1189 115.345 62.161C115.39 63.2556 116.206 63.7647 117.402 63.7647V63.757ZM114.521 62.9035H112.355L112.329 61.5831H114.281C114.314 61.5831 114.341 61.5563 114.341 61.5218V60.8941C114.341 60.8597 114.314 60.8329 114.281 60.8329H112.329L112.355 59.7689H114.469C114.502 59.7689 114.529 59.7421 114.529 59.7076V59.0799C114.529 59.0455 114.502 59.0187 114.469 59.0187H111.407C111.373 59.0187 111.347 59.0455 111.347 59.0799L111.381 61.3304L111.347 63.581C111.347 63.6154 111.373 63.6422 111.407 63.6422H114.521C114.555 63.6422 114.581 63.6154 114.581 63.581V62.9533C114.581 62.9188 114.555 62.892 114.521 62.892V62.9035ZM108.414 63.7494C109.478 63.7494 110.211 63.2671 110.471 62.0194C110.478 61.9658 110.459 61.939 110.418 61.939H109.549C109.515 61.939 109.497 61.9581 109.489 61.9926C109.365 62.6279 109.023 62.9762 108.387 62.9762C107.616 62.9762 107.176 62.383 107.176 61.3534C107.176 60.3238 107.605 59.7038 108.395 59.7038C108.985 59.7038 109.35 60.0215 109.47 60.5803C109.482 60.6147 109.504 60.6339 109.534 60.6339H110.384C110.422 60.6339 110.444 60.6071 110.437 60.5688C110.177 59.3402 109.38 58.9307 108.406 58.9307C107.037 58.9307 106.157 59.8875 106.157 61.3611C106.157 62.8346 107.018 63.7494 108.414 63.7494ZM102.253 61.6099L102.216 60.3545L103.998 63.6078C104.01 63.6346 104.036 63.646 104.07 63.646H105.205C105.239 63.646 105.266 63.6193 105.266 63.5848L105.239 61.3343L105.266 59.0838C105.266 59.0493 105.239 59.0225 105.205 59.0225H104.393C104.359 59.0225 104.333 59.0493 104.333 59.0838V61.2884L104.371 62.3371L102.547 59.0646C102.535 59.0378 102.509 59.0263 102.475 59.0263H101.381C101.347 59.0263 101.321 59.0531 101.321 59.0876L101.347 61.3381L101.321 63.5886C101.321 63.6231 101.347 63.6499 101.381 63.6499H102.193C102.227 63.6499 102.253 63.6231 102.253 63.5886V61.6099ZM100.377 62.9035H98.2102L98.1839 61.5831H100.136C100.17 61.5831 100.196 61.5563 100.196 61.5218V60.8941C100.196 60.8597 100.17 60.8329 100.136 60.8329H98.1839L98.2102 59.7689H100.324C100.358 59.7689 100.384 59.7421 100.384 59.7076V59.0799C100.384 59.0455 100.358 59.0187 100.324 59.0187H97.2625C97.2286 59.0187 97.2023 59.0455 97.2023 59.0799L97.2362 61.3304L97.2023 63.581C97.2023 63.6154 97.2286 63.6422 97.2625 63.6422H100.377C100.41 63.6422 100.437 63.6154 100.437 63.581V62.9533C100.437 62.9188 100.41 62.892 100.377 62.892V62.9035ZM96.1493 61.3419L96.1831 59.0914C96.1831 59.057 96.1568 59.0302 96.1229 59.0302H95.2391C95.2053 59.0302 95.179 59.057 95.179 59.0914L95.2128 61.3419L95.179 63.5925C95.179 63.6269 95.2053 63.6537 95.2391 63.6537H96.1229C96.1568 63.6537 96.1831 63.6269 96.1831 63.5925L96.1493 61.3419ZM92.2116 63.7494C93.276 63.7494 94.0093 63.2671 94.2688 62.0194C94.2764 61.9658 94.2575 61.939 94.2162 61.939H93.3474C93.3136 61.939 93.2948 61.9581 93.2872 61.9926C93.1631 62.6279 92.8209 62.9762 92.1853 62.9762C91.4143 62.9762 90.9743 62.383 90.9743 61.3534C90.9743 60.3238 91.403 59.7038 92.1928 59.7038C92.7833 59.7038 93.1481 60.0215 93.2684 60.5803C93.2797 60.6147 93.3023 60.6339 93.3324 60.6339H94.1823C94.2199 60.6339 94.2425 60.6071 94.235 60.5688C93.9755 59.3402 93.1782 58.9307 92.2041 58.9307C90.8351 58.9307 89.9551 59.8875 89.9551 61.3611C89.9551 62.8346 90.8163 63.7494 92.2116 63.7494ZM169.269 54.9846H167.426L167.399 53.3618L167.426 51.1686C167.426 51.1342 167.399 51.1074 167.366 51.1074H166.478C166.444 51.1074 166.418 51.1342 166.418 51.1686L166.452 53.4192L166.418 55.6697C166.418 55.7041 166.444 55.7309 166.478 55.7309H169.269C169.302 55.7309 169.329 55.7041 169.329 55.6697V55.042C169.329 55.0075 169.302 54.9808 169.269 54.9808V54.9846ZM164.048 53.756H162.837L163.428 51.781L164.052 53.756H164.048ZM164.086 51.1112H162.86C162.826 51.1112 162.8 51.1227 162.789 51.1572L161.258 55.6659C161.247 55.7118 161.265 55.7309 161.303 55.7309H162.187C162.221 55.7309 162.247 55.7118 162.251 55.6773L162.589 54.5559H164.297L164.654 55.685C164.661 55.7194 164.688 55.7309 164.718 55.7309H165.613C165.651 55.7309 165.677 55.7118 165.666 55.6659L164.154 51.1572C164.142 51.1227 164.12 51.1112 164.09 51.1112H164.086ZM158.749 55.8304C159.814 55.8304 160.547 55.3482 160.807 54.1005C160.814 54.0469 160.795 54.0201 160.754 54.0201H159.885C159.851 54.0201 159.832 54.0392 159.825 54.0737C159.701 54.709 159.359 55.0573 158.723 55.0573C157.952 55.0573 157.512 54.4641 157.512 53.4345C157.512 52.4049 157.941 51.7849 158.731 51.7849C159.321 51.7849 159.682 52.1025 159.806 52.6613C159.817 52.6958 159.84 52.7149 159.87 52.7149H160.72C160.758 52.7149 160.78 52.6881 160.773 52.6499C160.513 51.4213 159.716 51.0117 158.742 51.0117C157.373 51.0117 156.493 51.9686 156.493 53.4421C156.493 54.9157 157.354 55.8304 158.749 55.8304ZM155.534 53.4192L155.568 51.1686C155.568 51.1342 155.541 51.1074 155.507 51.1074H154.624C154.59 51.1074 154.563 51.1342 154.563 51.1686L154.597 53.4192L154.563 55.6697C154.563 55.7041 154.59 55.7309 154.624 55.7309H155.507C155.541 55.7309 155.568 55.7041 155.568 55.6697L155.534 53.4192ZM150.577 51.8576H151.273C152.036 51.8576 152.623 52.3513 152.623 53.4498C152.623 54.5483 152.032 54.9884 151.299 54.9884H150.581L150.554 53.4039L150.581 51.8576H150.577ZM151.246 55.7309C152.525 55.7309 153.638 55.0918 153.638 53.4536C153.638 51.8155 152.536 51.1112 151.231 51.1112H149.629C149.595 51.1112 149.569 51.138 149.569 51.1725L149.603 53.423L149.569 55.6735C149.569 55.708 149.595 55.7348 149.629 55.7348H151.243L151.246 55.7309ZM148.625 54.9846H146.459L146.432 53.6641H148.384C148.418 53.6641 148.444 53.6373 148.444 53.6029V52.9752C148.444 52.9407 148.418 52.9139 148.384 52.9139H146.432L146.459 51.8499H148.572C148.606 51.8499 148.633 51.8231 148.633 51.7887V51.161C148.633 51.1265 148.606 51.0998 148.572 51.0998H145.511C145.477 51.0998 145.451 51.1265 145.451 51.161L145.485 53.4115L145.451 55.662C145.451 55.6965 145.477 55.7233 145.511 55.7233H148.625C148.659 55.7233 148.685 55.6965 148.685 55.662V55.0343C148.685 54.9999 148.659 54.9731 148.625 54.9731V54.9846ZM134.668 53.8708H136.62C136.654 53.8708 136.68 53.844 136.68 53.8096V53.1819C136.68 53.1474 136.654 53.1206 136.62 53.1206H134.668L134.695 51.8538H136.71C136.744 51.8538 136.771 51.827 136.771 51.7925V51.1648C136.771 51.1304 136.744 51.1036 136.71 51.1036H133.747C133.713 51.1036 133.687 51.1304 133.687 51.1648L133.721 53.4153L133.687 55.6659C133.687 55.7003 133.713 55.7271 133.747 55.7271H134.634C134.668 55.7271 134.695 55.7003 134.695 55.6659L134.668 53.8632V53.8708ZM130.505 55.0573C129.689 55.0573 129.226 54.4373 129.226 53.4345C129.226 52.4317 129.666 51.7849 130.497 51.7849C131.329 51.7849 131.776 52.424 131.776 53.4345C131.776 54.4449 131.321 55.0573 130.505 55.0573ZM130.497 55.8304C131.885 55.8304 132.792 54.8468 132.792 53.4345C132.792 51.9418 131.878 51.0117 130.497 51.0117C129.117 51.0117 128.207 51.9609 128.207 53.4345C128.207 54.908 129.11 55.8304 130.497 55.8304ZM125.469 54.9846H123.303L123.277 53.6641H125.228C125.262 53.6641 125.289 53.6373 125.289 53.6029V52.9752C125.289 52.9407 125.262 52.9139 125.228 52.9139H123.277L123.303 51.8499H125.417C125.45 51.8499 125.477 51.8231 125.477 51.7887V51.161C125.477 51.1265 125.45 51.0998 125.417 51.0998H122.355C122.321 51.0998 122.295 51.1265 122.295 51.161L122.329 53.4115L122.295 55.662C122.295 55.6965 122.321 55.7233 122.355 55.7233H125.469C125.503 55.7233 125.529 55.6965 125.529 55.662V55.0343C125.529 54.9999 125.503 54.9731 125.469 54.9731V54.9846ZM120.121 53.4192L120.148 51.8538H121.4C121.434 51.8538 121.46 51.827 121.46 51.7925V51.1648C121.46 51.1304 121.434 51.1036 121.4 51.1036H117.883C117.85 51.1036 117.823 51.1304 117.823 51.1648V51.7925C117.823 51.827 117.85 51.8538 117.883 51.8538H119.143L119.17 53.4192L119.132 55.6697C119.132 55.7041 119.158 55.7309 119.192 55.7309H120.106C120.14 55.7309 120.166 55.7041 120.166 55.6697L120.129 53.4192H120.121ZM115.179 55.8304C116.387 55.8304 116.988 55.1913 116.988 54.0162V52.7609L117 51.1686C117 51.1342 116.973 51.1074 116.939 51.1074H116.127C116.093 51.1074 116.067 51.1342 116.067 51.1686L116.086 52.7532V54.0086C116.086 54.6669 115.807 55.0305 115.172 55.0305C114.581 55.0305 114.322 54.6669 114.322 54.0086L114.314 52.7341L114.333 51.1686C114.333 51.1342 114.307 51.1074 114.273 51.1074H113.367C113.333 51.1074 113.306 51.1342 113.306 51.1686L113.325 52.7609V54.0162C113.318 55.1913 113.961 55.8304 115.168 55.8304H115.179ZM111.151 53.4192L111.178 51.8538H112.43C112.464 51.8538 112.49 51.827 112.49 51.7925V51.1648C112.49 51.1304 112.464 51.1036 112.43 51.1036H108.914C108.88 51.1036 108.854 51.1304 108.854 51.1648V51.7925C108.854 51.827 108.88 51.8538 108.914 51.8538H110.174L110.2 53.4192L110.162 55.6697C110.162 55.7041 110.189 55.7309 110.223 55.7309H111.136C111.17 55.7309 111.197 55.7041 111.197 55.6697L111.159 53.4192H111.151ZM107.955 53.4192L107.989 51.1686C107.989 51.1342 107.962 51.1074 107.928 51.1074H107.045C107.011 51.1074 106.984 51.1342 106.984 51.1686L107.018 53.4192L106.984 55.6697C106.984 55.7041 107.011 55.7309 107.045 55.7309H107.928C107.962 55.7309 107.989 55.7041 107.989 55.6697L107.955 53.4192ZM104.777 53.4192L104.803 51.8538H106.055C106.089 51.8538 106.116 51.827 106.116 51.7925V51.1648C106.116 51.1304 106.089 51.1036 106.055 51.1036H102.539C102.505 51.1036 102.479 51.1304 102.479 51.1648V51.7925C102.479 51.827 102.505 51.8538 102.539 51.8538H103.799L103.825 53.4192L103.788 55.6697C103.788 55.7041 103.814 55.7309 103.848 55.7309H104.762C104.796 55.7309 104.822 55.7041 104.822 55.6697L104.784 53.4192H104.777ZM100.091 55.8343C101.279 55.8343 102.016 55.3061 102.016 54.3301C102.016 52.5044 99.1053 53.3043 99.1053 52.3169C99.1053 51.9341 99.4438 51.7696 99.9102 51.7696C100.463 51.7696 100.798 51.9992 100.843 52.4202C100.85 52.4585 100.877 52.4814 100.907 52.4814H101.821C101.858 52.4814 101.885 52.4547 101.881 52.4164C101.738 51.4289 101.012 51.0155 99.9478 51.0155C98.7857 51.0155 98.1237 51.5552 98.1237 52.424C98.1237 54.2574 101.023 53.4345 101.023 54.4755C101.023 54.9119 100.7 55.0879 100.109 55.0879C99.3648 55.0879 99.1317 54.7511 99.0715 54.2382C99.064 54.2 99.0376 54.177 99.0076 54.177H98.0937C98.0561 54.177 98.0335 54.1961 98.0335 54.2382C98.0786 55.3329 98.8947 55.8419 100.091 55.8419V55.8343ZM94.1598 53.6909L94.1221 52.4355L95.9048 55.6888C95.9161 55.7156 95.9424 55.7271 95.9763 55.7271H97.1121C97.1459 55.7271 97.1722 55.7003 97.1722 55.6659L97.1459 53.4153L97.1722 51.1648C97.1722 51.1304 97.1459 51.1036 97.1121 51.1036H96.2997C96.2659 51.1036 96.2395 51.1304 96.2395 51.1648V53.3694L96.2771 54.4181L94.4531 51.1457C94.4418 51.1189 94.4155 51.1074 94.3817 51.1074H93.2872C93.2534 51.1074 93.2271 51.1342 93.2271 51.1686L93.2534 53.4192L93.2271 55.6697C93.2271 55.7041 93.2534 55.7309 93.2872 55.7309H94.0996C94.1334 55.7309 94.1598 55.7041 94.1598 55.6697V53.6909ZM140.727 59.765C141.235 59.765 141.524 60.0023 141.524 60.5037C141.524 61.0051 141.167 61.2041 140.753 61.2041H139.764L139.783 59.765H140.727ZM141.464 61.828C142.107 61.629 142.476 61.162 142.476 60.4808C142.476 59.5162 141.822 59.0302 140.686 59.0302H138.847C138.813 59.0302 138.787 59.057 138.787 59.0914L138.813 61.3419L138.787 63.5925C138.787 63.6269 138.813 63.6537 138.847 63.6537H139.734C139.768 63.6537 139.794 63.6269 139.794 63.5925L139.776 61.9352H140.422L140.87 62.6203L141.453 63.6116C141.464 63.6384 141.491 63.6499 141.524 63.6499H142.544C142.589 63.6499 142.608 63.6154 142.581 63.5772L141.464 61.828ZM87.2623 63.757C88.4507 63.757 89.1879 63.2289 89.1879 62.2529C89.1879 60.4272 86.2769 61.2271 86.2769 60.2396C86.2769 59.8569 86.6154 59.6923 87.0818 59.6923C87.6346 59.6923 87.9693 59.922 88.0145 60.343C88.022 60.3813 88.0483 60.4042 88.0784 60.4042H88.9923C89.0299 60.4042 89.0562 60.3774 89.0525 60.3391C88.9096 59.3517 88.1837 58.9383 87.1194 58.9383C85.9573 58.9383 85.2953 59.478 85.2953 60.3468C85.2953 62.1801 88.195 61.3572 88.195 62.3983C88.195 62.8346 87.8716 63.0107 87.2811 63.0107C86.5364 63.0107 86.3033 62.6739 86.2431 62.161C86.2356 62.1227 86.2092 62.0998 86.1791 62.0998H85.2653C85.2276 62.0998 85.2051 62.1189 85.2051 62.161C85.2502 63.2556 86.0663 63.7647 87.2623 63.7647V63.757ZM140.407 53.7751L140.37 52.3437L141.585 55.685C141.596 55.7194 141.622 55.7309 141.656 55.7309H142.329C142.363 55.7309 142.389 55.7194 142.401 55.685L143.503 52.4853L143.469 53.7789V55.6735C143.469 55.708 143.495 55.7348 143.529 55.7348H144.405C144.439 55.7348 144.465 55.708 144.465 55.6735L144.439 53.423L144.465 51.1725C144.465 51.138 144.439 51.1112 144.405 51.1112H143.277C143.243 51.1112 143.217 51.1227 143.206 51.1572L142.062 54.4908L140.851 51.1572C140.84 51.1227 140.814 51.1112 140.78 51.1112H139.573C139.539 51.1112 139.512 51.138 139.512 51.1725L139.539 53.423L139.512 55.6735C139.512 55.708 139.539 55.7348 139.573 55.7348H140.351C140.385 55.7348 140.411 55.708 140.411 55.6735V53.7789L140.407 53.7751ZM92.174 53.4192L92.2079 51.1686C92.2079 51.1342 92.1815 51.1074 92.1477 51.1074H91.2639C91.23 51.1074 91.2037 51.1342 91.2037 51.1686L91.2376 53.4192L91.2037 55.6697C91.2037 55.7041 91.23 55.7309 91.2639 55.7309H92.1477C92.1815 55.7309 92.2079 55.7041 92.2079 55.6697L92.174 53.4192Z" fill="#006B64"/>
</svg>
